<svg xmlns="http://www.w3.org/2000/svg" xmlns:xlink="http://www.w3.org/1999/xlink" width="64" zoomAndPan="magnify" viewBox="0 0 48 48" height="64" preserveAspectRatio="xMidYMid meet" version="1.0"><defs><clipPath id="a0fd65b0e9"><path d="M 0.488281 0 L 47.507812 0 L 47.507812 47.019531 L 0.488281 47.019531 Z M 0.488281 0 " clip-rule="nonzero"/></clipPath><clipPath id="7b230bb364"><path d="M 12 31 L 36 31 L 36 47.019531 L 12 47.019531 Z M 12 31 " clip-rule="nonzero"/></clipPath><clipPath id="89344f248b"><path d="M 0.488281 0 L 47.507812 0 L 47.507812 34 L 0.488281 34 Z M 0.488281 0 " clip-rule="nonzero"/></clipPath></defs><g clip-path="url(#a0fd65b0e9)"><path fill="#ffffff" d="M 0.488281 0 L 47.511719 0 L 47.511719 54.367188 L 0.488281 54.367188 Z M 0.488281 0 " fill-opacity="1" fill-rule="nonzero"/><path fill="#ffffff" d="M 0.488281 0 L 47.511719 0 L 47.511719 47.019531 L 0.488281 47.019531 Z M 0.488281 0 " fill-opacity="1" fill-rule="nonzero"/><path fill="#ffffff" d="M 0.488281 0 L 47.511719 0 L 47.511719 47.019531 L 0.488281 47.019531 Z M 0.488281 0 " fill-opacity="1" fill-rule="nonzero"/></g><g clip-path="url(#7b230bb364)"><path fill="#201e1d" d="M 14.015625 45.671875 L 33.984375 45.671875 L 33.984375 42.910156 L 29.023438 42.910156 C 26.972656 42.910156 25.304688 41.242188 25.304688 39.191406 L 25.304688 33.167969 L 22.695312 33.167969 L 22.695312 39.191406 C 22.695312 41.242188 21.027344 42.910156 18.976562 42.910156 L 14.015625 42.910156 Z M 34.65625 47.019531 L 13.34375 47.019531 C 12.96875 47.019531 12.667969 46.71875 12.667969 46.347656 L 12.667969 42.238281 C 12.667969 41.863281 12.96875 41.5625 13.34375 41.5625 L 18.976562 41.5625 C 20.285156 41.5625 21.347656 40.5 21.347656 39.191406 L 21.347656 32.492188 C 21.347656 32.121094 21.648438 31.820312 22.019531 31.820312 L 25.980469 31.820312 C 26.351562 31.820312 26.652344 32.121094 26.652344 32.492188 L 26.652344 39.191406 C 26.652344 40.5 27.714844 41.5625 29.023438 41.5625 L 34.65625 41.5625 C 35.03125 41.5625 35.332031 41.863281 35.332031 42.238281 L 35.332031 46.347656 C 35.332031 46.71875 35.03125 47.019531 34.65625 47.019531 " fill-opacity="1" fill-rule="nonzero"/></g><g clip-path="url(#89344f248b)"><path fill="#201e1d" d="M 4.207031 1.347656 C 2.898438 1.347656 1.835938 2.410156 1.835938 3.71875 L 1.835938 29.449219 C 1.835938 30.753906 2.898438 31.820312 4.207031 31.820312 L 43.792969 31.820312 C 45.101562 31.820312 46.164062 30.753906 46.164062 29.449219 L 46.164062 3.71875 C 46.164062 2.410156 45.101562 1.347656 43.792969 1.347656 Z M 43.792969 33.167969 L 4.207031 33.167969 C 2.15625 33.167969 0.488281 31.5 0.488281 29.449219 L 0.488281 3.71875 C 0.488281 1.667969 2.15625 0 4.207031 0 L 43.792969 0 C 45.84375 0 47.511719 1.667969 47.511719 3.71875 L 47.511719 29.449219 C 47.511719 31.5 45.84375 33.167969 43.792969 33.167969 " fill-opacity="1" fill-rule="nonzero"/></g><path fill="#201e1d" d="M 16.472656 11.972656 C 15.453125 11.972656 15.070312 10.839844 14.761719 9.925781 C 14.652344 9.605469 14.433594 8.957031 14.273438 8.796875 C 13.964844 8.804688 13.828125 8.890625 13.609375 9.03125 C 13.3125 9.214844 12.90625 9.46875 12.175781 9.46875 C 11.972656 9.46875 11.882812 9.546875 11.613281 9.859375 C 11.320312 10.203125 10.875 10.71875 10.027344 10.71875 C 9.070312 10.71875 8.652344 9.871094 8.347656 9.25 C 8.234375 9.019531 7.996094 8.535156 7.878906 8.535156 C 7.722656 8.535156 7.632812 8.613281 7.355469 9.007812 C 7.058594 9.421875 6.617188 10.046875 5.730469 10.046875 C 5.359375 10.046875 5.058594 9.746094 5.058594 9.375 C 5.058594 9 5.359375 8.699219 5.730469 8.699219 C 5.886719 8.699219 5.976562 8.621094 6.253906 8.226562 C 6.550781 7.8125 6.992188 7.1875 7.878906 7.1875 C 8.835938 7.1875 9.253906 8.035156 9.558594 8.65625 C 9.671875 8.886719 9.910156 9.371094 10.027344 9.371094 C 10.234375 9.371094 10.324219 9.292969 10.589844 8.980469 C 10.882812 8.636719 11.328125 8.121094 12.175781 8.121094 C 12.519531 8.121094 12.660156 8.03125 12.894531 7.886719 C 13.191406 7.703125 13.59375 7.449219 14.324219 7.449219 C 15.347656 7.449219 15.730469 8.582031 16.039062 9.496094 C 16.148438 9.816406 16.367188 10.464844 16.527344 10.625 C 16.941406 10.621094 17.136719 10.570312 17.378906 10.507812 C 17.671875 10.433594 18 10.347656 18.625 10.347656 C 18.757812 10.347656 18.949219 9.988281 19.105469 9.703125 C 19.394531 9.164062 19.832031 8.351562 20.773438 8.351562 C 21.304688 8.351562 21.558594 8.34375 21.832031 8.339844 C 22.101562 8.332031 22.378906 8.328125 22.921875 8.328125 C 23.210938 8.328125 23.320312 8.234375 23.558594 8.03125 C 23.867188 7.769531 24.285156 7.414062 25.070312 7.414062 C 25.847656 7.414062 26.265625 7.757812 26.570312 8.007812 C 26.804688 8.199219 26.921875 8.292969 27.21875 8.292969 C 28.019531 8.292969 28.441406 8.683594 28.75 8.96875 C 29.007812 9.203125 29.109375 9.285156 29.367188 9.285156 C 29.507812 9.285156 29.621094 9.144531 29.871094 8.738281 C 30.164062 8.269531 30.605469 7.558594 31.519531 7.558594 C 32.492188 7.558594 32.90625 8.492188 33.207031 9.175781 C 33.316406 9.414062 33.535156 9.910156 33.667969 9.988281 C 33.800781 9.910156 34.019531 9.414062 34.125 9.171875 C 34.425781 8.488281 34.839844 7.550781 35.816406 7.550781 C 36.324219 7.550781 36.574219 7.53125 36.835938 7.507812 C 37.113281 7.484375 37.402344 7.460938 37.964844 7.460938 C 38.570312 7.460938 38.890625 7.527344 39.175781 7.582031 C 39.429688 7.636719 39.648438 7.679688 40.117188 7.679688 C 40.976562 7.679688 41.421875 8.226562 41.714844 8.585938 C 41.984375 8.917969 42.074219 9 42.269531 9 C 42.640625 9 42.941406 9.300781 42.941406 9.671875 C 42.941406 10.046875 42.640625 10.347656 42.269531 10.347656 C 41.410156 10.347656 40.964844 9.800781 40.671875 9.4375 C 40.402344 9.109375 40.3125 9.027344 40.117188 9.027344 C 39.511719 9.027344 39.191406 8.960938 38.910156 8.90625 C 38.65625 8.851562 38.4375 8.808594 37.964844 8.808594 C 37.457031 8.808594 37.207031 8.828125 36.945312 8.851562 C 36.667969 8.875 36.382812 8.898438 35.820312 8.898438 C 35.6875 8.972656 35.464844 9.472656 35.359375 9.714844 C 35.058594 10.398438 34.644531 11.335938 33.667969 11.335938 C 32.691406 11.335938 32.277344 10.402344 31.976562 9.71875 C 31.871094 9.476562 31.648438 8.976562 31.515625 8.90625 C 31.378906 8.910156 31.261719 9.054688 31.015625 9.453125 C 30.722656 9.921875 30.28125 10.632812 29.367188 10.632812 C 28.566406 10.632812 28.144531 10.242188 27.835938 9.957031 C 27.582031 9.722656 27.480469 9.640625 27.21875 9.640625 C 26.441406 9.640625 26.023438 9.296875 25.71875 9.046875 C 25.484375 8.855469 25.367188 8.761719 25.070312 8.761719 C 24.78125 8.761719 24.671875 8.855469 24.433594 9.058594 C 24.125 9.316406 23.707031 9.675781 22.921875 9.675781 C 22.390625 9.675781 22.136719 9.679688 21.863281 9.6875 C 21.59375 9.691406 21.316406 9.699219 20.773438 9.699219 C 20.636719 9.699219 20.445312 10.054688 20.292969 10.34375 C 20 10.878906 19.5625 11.695312 18.625 11.695312 C 18.171875 11.695312 17.972656 11.746094 17.71875 11.8125 C 17.425781 11.886719 17.097656 11.972656 16.472656 11.972656 " fill-opacity="1" fill-rule="nonzero"/><path fill="#201e1d" d="M 16.472656 19.585938 C 15.453125 19.585938 15.070312 18.449219 14.761719 17.539062 C 14.652344 17.21875 14.433594 16.570312 14.273438 16.410156 C 13.964844 16.417969 13.828125 16.503906 13.609375 16.640625 C 13.3125 16.828125 12.90625 17.078125 12.175781 17.078125 C 11.972656 17.078125 11.882812 17.160156 11.613281 17.46875 C 11.320312 17.8125 10.875 18.332031 10.027344 18.332031 C 9.070312 18.332031 8.652344 17.484375 8.347656 16.863281 C 8.234375 16.628906 7.996094 16.144531 7.878906 16.144531 C 7.722656 16.144531 7.632812 16.226562 7.355469 16.621094 C 7.058594 17.035156 6.617188 17.660156 5.730469 17.660156 C 5.359375 17.660156 5.058594 17.359375 5.058594 16.984375 C 5.058594 16.613281 5.359375 16.3125 5.730469 16.3125 C 5.886719 16.3125 5.976562 16.234375 6.253906 15.839844 C 6.550781 15.425781 6.992188 14.796875 7.878906 14.796875 C 8.835938 14.796875 9.253906 15.648438 9.558594 16.269531 C 9.671875 16.5 9.910156 16.984375 10.027344 16.984375 C 10.234375 16.984375 10.324219 16.90625 10.589844 16.59375 C 10.882812 16.25 11.328125 15.730469 12.175781 15.730469 C 12.519531 15.730469 12.660156 15.644531 12.894531 15.5 C 13.191406 15.316406 13.59375 15.0625 14.324219 15.0625 C 15.347656 15.0625 15.730469 16.195312 16.039062 17.109375 C 16.148438 17.429688 16.367188 18.078125 16.527344 18.238281 C 16.941406 18.234375 17.136719 18.183594 17.378906 18.121094 C 17.671875 18.042969 18 17.957031 18.625 17.957031 C 18.757812 17.957031 18.949219 17.601562 19.105469 17.316406 C 19.394531 16.777344 19.832031 15.964844 20.773438 15.964844 C 21.304688 15.964844 21.558594 15.957031 21.832031 15.953125 C 22.101562 15.945312 22.378906 15.941406 22.921875 15.941406 C 23.210938 15.941406 23.320312 15.847656 23.558594 15.644531 C 23.867188 15.382812 24.285156 15.027344 25.070312 15.027344 C 25.847656 15.027344 26.265625 15.367188 26.570312 15.617188 C 26.804688 15.808594 26.921875 15.90625 27.21875 15.90625 C 28.019531 15.90625 28.441406 16.296875 28.75 16.582031 C 29.007812 16.816406 29.109375 16.898438 29.367188 16.898438 C 29.507812 16.898438 29.621094 16.753906 29.871094 16.351562 C 30.164062 15.882812 30.605469 15.171875 31.519531 15.171875 C 32.492188 15.171875 32.90625 16.105469 33.207031 16.789062 C 33.316406 17.027344 33.535156 17.523438 33.667969 17.601562 C 33.800781 17.519531 34.019531 17.023438 34.125 16.785156 C 34.425781 16.101562 34.839844 15.164062 35.816406 15.164062 C 36.324219 15.164062 36.574219 15.140625 36.835938 15.121094 C 37.113281 15.097656 37.402344 15.074219 37.964844 15.074219 C 38.570312 15.074219 38.890625 15.140625 39.175781 15.195312 C 39.429688 15.246094 39.648438 15.292969 40.117188 15.292969 C 40.976562 15.292969 41.421875 15.839844 41.714844 16.199219 C 41.984375 16.527344 42.074219 16.613281 42.269531 16.613281 C 42.640625 16.613281 42.941406 16.914062 42.941406 17.285156 C 42.941406 17.65625 42.640625 17.960938 42.269531 17.960938 C 41.410156 17.960938 40.964844 17.414062 40.671875 17.050781 C 40.402344 16.722656 40.3125 16.640625 40.117188 16.640625 C 39.511719 16.640625 39.191406 16.574219 38.910156 16.515625 C 38.65625 16.464844 38.4375 16.421875 37.964844 16.421875 C 37.457031 16.421875 37.207031 16.441406 36.945312 16.464844 C 36.667969 16.488281 36.382812 16.511719 35.820312 16.511719 C 35.6875 16.582031 35.464844 17.085938 35.359375 17.328125 C 35.058594 18.011719 34.644531 18.949219 33.667969 18.949219 C 32.691406 18.949219 32.277344 18.015625 31.976562 17.332031 C 31.871094 17.089844 31.648438 16.589844 31.515625 16.519531 C 31.378906 16.519531 31.261719 16.664062 31.015625 17.0625 C 30.722656 17.535156 30.28125 18.246094 29.367188 18.246094 C 28.566406 18.246094 28.144531 17.855469 27.835938 17.570312 C 27.582031 17.335938 27.480469 17.253906 27.21875 17.253906 C 26.441406 17.253906 26.023438 16.910156 25.71875 16.660156 C 25.484375 16.46875 25.367188 16.375 25.070312 16.375 C 24.78125 16.375 24.671875 16.464844 24.433594 16.667969 C 24.125 16.929688 23.707031 17.289062 22.921875 17.289062 C 22.390625 17.289062 22.136719 17.292969 21.863281 17.300781 C 21.59375 17.304688 21.316406 17.3125 20.773438 17.3125 C 20.636719 17.3125 20.445312 17.667969 20.292969 17.953125 C 20 18.492188 19.5625 19.304688 18.625 19.304688 C 18.171875 19.304688 17.972656 19.359375 17.71875 19.425781 C 17.425781 19.5 17.097656 19.585938 16.472656 19.585938 " fill-opacity="1" fill-rule="nonzero"/><path fill="#201e1d" d="M 16.472656 27.199219 C 15.453125 27.199219 15.070312 26.0625 14.761719 25.152344 C 14.652344 24.832031 14.433594 24.183594 14.273438 24.023438 C 13.964844 24.03125 13.828125 24.117188 13.609375 24.253906 C 13.3125 24.4375 12.90625 24.691406 12.175781 24.691406 C 11.972656 24.691406 11.882812 24.769531 11.613281 25.082031 C 11.320312 25.425781 10.875 25.945312 10.027344 25.945312 C 9.070312 25.945312 8.652344 25.09375 8.347656 24.476562 C 8.234375 24.242188 7.996094 23.757812 7.878906 23.757812 C 7.722656 23.757812 7.632812 23.839844 7.355469 24.230469 C 7.058594 24.644531 6.617188 25.273438 5.730469 25.273438 C 5.359375 25.273438 5.058594 24.972656 5.058594 24.597656 C 5.058594 24.226562 5.359375 23.925781 5.730469 23.925781 C 5.886719 23.925781 5.976562 23.84375 6.253906 23.453125 C 6.550781 23.039062 6.992188 22.410156 7.878906 22.410156 C 8.835938 22.410156 9.253906 23.261719 9.558594 23.878906 C 9.671875 24.113281 9.910156 24.597656 10.027344 24.597656 C 10.234375 24.597656 10.324219 24.519531 10.589844 24.207031 C 10.882812 23.863281 11.328125 23.34375 12.175781 23.34375 C 12.519531 23.34375 12.660156 23.257812 12.894531 23.109375 C 13.191406 22.925781 13.59375 22.675781 14.324219 22.675781 C 15.347656 22.675781 15.730469 23.808594 16.039062 24.71875 C 16.148438 25.039062 16.367188 25.691406 16.527344 25.851562 C 16.941406 25.847656 17.136719 25.796875 17.378906 25.730469 C 17.671875 25.65625 18 25.570312 18.625 25.570312 C 18.757812 25.570312 18.949219 25.214844 19.105469 24.925781 C 19.394531 24.390625 19.832031 23.574219 20.773438 23.574219 C 21.304688 23.574219 21.558594 23.570312 21.832031 23.5625 C 22.101562 23.558594 22.378906 23.550781 22.921875 23.550781 C 23.210938 23.550781 23.320312 23.460938 23.558594 23.253906 C 23.867188 22.996094 24.285156 22.636719 25.070312 22.636719 C 25.847656 22.636719 26.265625 22.980469 26.570312 23.230469 C 26.804688 23.421875 26.921875 23.519531 27.21875 23.519531 C 28.019531 23.519531 28.441406 23.910156 28.75 24.195312 C 29.007812 24.429688 29.109375 24.511719 29.367188 24.511719 C 29.507812 24.511719 29.621094 24.367188 29.871094 23.964844 C 30.164062 23.496094 30.605469 22.785156 31.519531 22.785156 C 32.492188 22.785156 32.90625 23.71875 33.207031 24.398438 C 33.316406 24.640625 33.535156 25.132812 33.667969 25.210938 C 33.800781 25.132812 34.019531 24.636719 34.125 24.398438 C 34.425781 23.710938 34.839844 22.773438 35.816406 22.773438 C 36.324219 22.773438 36.574219 22.753906 36.835938 22.734375 C 37.113281 22.710938 37.402344 22.6875 37.964844 22.6875 C 38.570312 22.6875 38.890625 22.75 39.175781 22.808594 C 39.429688 22.859375 39.648438 22.902344 40.117188 22.902344 C 40.976562 22.902344 41.421875 23.449219 41.714844 23.8125 C 41.984375 24.140625 42.074219 24.222656 42.269531 24.222656 C 42.640625 24.222656 42.941406 24.527344 42.941406 24.898438 C 42.941406 25.269531 42.640625 25.570312 42.269531 25.570312 C 41.410156 25.570312 40.964844 25.023438 40.671875 24.664062 C 40.402344 24.335938 40.3125 24.25 40.117188 24.25 C 39.511719 24.25 39.191406 24.1875 38.910156 24.128906 C 38.65625 24.078125 38.4375 24.035156 37.964844 24.035156 C 37.457031 24.035156 37.207031 24.054688 36.945312 24.074219 C 36.667969 24.097656 36.382812 24.121094 35.820312 24.121094 C 35.6875 24.195312 35.464844 24.695312 35.359375 24.941406 C 35.058594 25.625 34.644531 26.5625 33.667969 26.5625 C 32.691406 26.5625 32.277344 25.628906 31.976562 24.945312 C 31.871094 24.703125 31.648438 24.203125 31.515625 24.128906 C 31.378906 24.132812 31.261719 24.277344 31.015625 24.675781 C 30.722656 25.148438 30.28125 25.859375 29.367188 25.859375 C 28.566406 25.859375 28.144531 25.46875 27.835938 25.183594 C 27.582031 24.949219 27.480469 24.867188 27.21875 24.867188 C 26.441406 24.867188 26.023438 24.523438 25.71875 24.273438 C 25.484375 24.082031 25.367188 23.984375 25.070312 23.984375 C 24.78125 23.984375 24.671875 24.078125 24.433594 24.28125 C 24.125 24.542969 23.707031 24.898438 22.921875 24.898438 C 22.390625 24.898438 22.136719 24.90625 21.863281 24.910156 C 21.59375 24.917969 21.316406 24.921875 20.773438 24.921875 C 20.636719 24.921875 20.445312 25.28125 20.292969 25.566406 C 20 26.105469 19.5625 26.917969 18.625 26.917969 C 18.171875 26.917969 17.972656 26.96875 17.71875 27.035156 C 17.425781 27.113281 17.097656 27.199219 16.472656 27.199219 " fill-opacity="1" fill-rule="nonzero"/></svg>