<?xml version="1.0" encoding="UTF-8"?>
<!DOCTYPE svg PUBLIC "-//W3C//DTD SVG 1.1//EN" "http://www.w3.org/Graphics/SVG/1.1/DTD/svg11.dtd">
<svg xmlns="http://www.w3.org/2000/svg" version="1.1" width="400px" height="400px" style="shape-rendering:geometricPrecision; text-rendering:geometricPrecision; image-rendering:optimizeQuality; fill-rule:evenodd; clip-rule:evenodd" xmlns:xlink="http://www.w3.org/1999/xlink">
<g><path style="opacity:1" fill="#fdfdfd" d="M -0.5,-0.5 C 132.833,-0.5 266.167,-0.5 399.5,-0.5C 399.5,132.833 399.5,266.167 399.5,399.5C 266.167,399.5 132.833,399.5 -0.5,399.5C -0.5,266.167 -0.5,132.833 -0.5,-0.5 Z"/></g>
<g><path style="opacity:1" fill="#141414" d="M 160.5,310.5 C 131.833,310.5 103.167,310.5 74.5,310.5C 74.5,281.833 74.5,253.167 74.5,224.5C 87.6314,210.868 100.965,197.368 114.5,184C 101,170.5 87.5,157 74,143.5C 73.5,114.502 73.3334,85.5019 73.5,56.5C 102.502,56.3334 131.502,56.5 160.5,57C 174,70.5 187.5,84 201,97.5C 214.5,84 228,70.5 241.5,57C 270.498,56.5 299.498,56.3334 328.5,56.5C 328.667,85.5019 328.5,114.502 328,143.5C 314.458,156.708 301.291,170.208 288.5,184C 301.291,197.792 314.458,211.292 328,224.5C 328.5,253.498 328.667,282.498 328.5,311.5C 299.498,311.667 270.498,311.5 241.5,311C 227.978,297.478 214.478,283.978 201,270.5C 187.653,284.013 174.153,297.347 160.5,310.5 Z"/></g>
<g><path style="opacity:1" fill="#878887" d="M 158.5,60.5 C 131.5,60.5 104.5,60.5 77.5,60.5C 77.5,87.5 77.5,114.5 77.5,141.5C 76.5021,114.338 76.1688,87.0051 76.5,59.5C 104.005,59.1688 131.338,59.5021 158.5,60.5 Z"/></g>
<g><path style="opacity:1" fill="#fdfdfd" d="M 158.5,60.5 C 171.465,72.9647 184.298,85.6314 197,98.5C 197.667,99.5 197.667,100.5 197,101.5C 170.833,127.667 144.667,153.833 118.5,180C 117.5,180.667 116.5,180.667 115.5,180C 102.631,167.298 89.9647,154.465 77.5,141.5C 77.5,114.5 77.5,87.5 77.5,60.5C 104.5,60.5 131.5,60.5 158.5,60.5 Z"/></g>
<g><path style="opacity:1" fill="#fdfdfd" d="M 243.5,60.5 C 270.5,60.5 297.5,60.5 324.5,60.5C 324.5,87.5 324.5,114.5 324.5,141.5C 311.535,154.965 298.369,168.299 285,181.5C 258.333,154.833 231.667,128.167 205,101.5C 204.333,100.5 204.333,99.5 205,98.5C 217.702,85.6314 230.535,72.9647 243.5,60.5 Z"/></g>
<g><path style="opacity:1" fill="#929292" d="M 243.5,60.5 C 270.662,59.5021 297.995,59.1688 325.5,59.5C 325.831,87.0051 325.498,114.338 324.5,141.5C 324.5,114.5 324.5,87.5 324.5,60.5C 297.5,60.5 270.5,60.5 243.5,60.5 Z"/></g>
<g><path style="opacity:1" fill="#fcfcfc" d="M 199.5,103.5 C 200.552,103.351 201.552,103.517 202.5,104C 229.207,130.373 255.541,157.04 281.5,184C 255.333,211.5 228.5,238.333 201,264.5C 173.5,238.333 146.667,211.5 120.5,184C 146.661,157.006 172.994,130.172 199.5,103.5 Z"/></g>
<g><path style="opacity:1" fill="#fcfcfc" d="M 115.5,187.5 C 116.552,187.351 117.552,187.517 118.5,188C 145.207,214.373 171.541,241.04 197.5,268C 185.209,281.292 172.542,294.292 159.5,307C 131.835,307.5 104.169,307.667 76.5,307.5C 76.3334,280.498 76.5,253.498 77,226.5C 90.0353,213.632 102.869,200.632 115.5,187.5 Z"/></g>
<g><path style="opacity:1" fill="#fdfdfd" d="M 324.5,226.5 C 324.5,253.5 324.5,280.5 324.5,307.5C 297.5,307.5 270.5,307.5 243.5,307.5C 230.535,295.035 217.702,282.369 205,269.5C 204.405,268.101 204.572,266.768 205.5,265.5C 232.126,239.374 258.626,213.041 285,186.5C 298.369,199.701 311.535,213.035 324.5,226.5 Z"/></g>
<g><path style="opacity:1" fill="#737373" d="M 324.5,226.5 C 325.498,253.662 325.831,280.995 325.5,308.5C 297.995,308.831 270.662,308.498 243.5,307.5C 270.5,307.5 297.5,307.5 324.5,307.5C 324.5,280.5 324.5,253.5 324.5,226.5 Z"/></g>
<g><path style="opacity:1" fill="#272727" d="M 74.5,224.5 C 74.5,253.167 74.5,281.833 74.5,310.5C 103.167,310.5 131.833,310.5 160.5,310.5C 131.671,311.498 102.671,311.831 73.5,311.5C 73.1686,282.329 73.502,253.329 74.5,224.5 Z"/></g>
<g><path style="opacity:1" fill="#1f1f1f" d="M 73.5,315.5 C 75.1667,315.5 76.8333,315.5 78.5,315.5C 78.6499,319.161 77.1499,320.161 74,318.5C 73.5172,317.552 73.3505,316.552 73.5,315.5 Z"/></g>
<g><path style="opacity:1" fill="#1d1d1d" d="M 189.5,315.5 C 191.167,315.5 192.833,315.5 194.5,315.5C 194.65,319.161 193.15,320.161 190,318.5C 189.517,317.552 189.351,316.552 189.5,315.5 Z"/></g>
<g><path style="opacity:1" fill="#141414" d="M 326.5,324.5 C 324.833,324.5 323.167,324.5 321.5,324.5C 321.179,329.695 321.513,334.695 322.5,339.5C 323.568,340.434 324.901,340.768 326.5,340.5C 326.5,341.5 326.5,342.5 326.5,343.5C 323.014,344.171 320.347,343.171 318.5,340.5C 318.5,335.167 318.5,329.833 318.5,324.5C 317.5,324.5 316.5,324.5 315.5,324.5C 315.5,323.5 315.5,322.5 315.5,321.5C 316.5,321.5 317.5,321.5 318.5,321.5C 318.5,319.5 318.5,317.5 318.5,315.5C 319.833,315.5 321.167,315.5 322.5,315.5C 322.5,317.5 322.5,319.5 322.5,321.5C 323.833,321.5 325.167,321.5 326.5,321.5C 326.5,322.5 326.5,323.5 326.5,324.5 Z"/></g>
<g><path style="opacity:1" fill="#0d0d0d" d="M 223.5,324.5 C 221.833,324.5 220.167,324.5 218.5,324.5C 218.179,329.695 218.513,334.695 219.5,339.5C 220.209,340.404 221.209,340.737 222.5,340.5C 222.5,341.5 222.5,342.5 222.5,343.5C 219.369,344.092 217.036,343.092 215.5,340.5C 215.5,335.167 215.5,329.833 215.5,324.5C 214.5,324.5 213.5,324.5 212.5,324.5C 212.5,323.5 212.5,322.5 212.5,321.5C 213.5,321.5 214.5,321.5 215.5,321.5C 215.5,319.5 215.5,317.5 215.5,315.5C 216.5,315.5 217.5,315.5 218.5,315.5C 218.5,317.5 218.5,319.5 218.5,321.5C 220.167,321.5 221.833,321.5 223.5,321.5C 223.5,322.5 223.5,323.5 223.5,324.5 Z"/></g>
<g><path style="opacity:1" fill="#0c0c0c" d="M 88.5,321.5 C 92.708,322.305 96.8746,322.305 101,321.5C 103.145,321.396 104.979,322.063 106.5,323.5C 107.496,329.798 107.83,336.132 107.5,342.5C 106.5,342.5 105.5,342.5 104.5,342.5C 104.821,336.974 104.488,331.64 103.5,326.5C 102.01,324.72 100.01,324.054 97.5,324.5C 97.5,330.5 97.5,336.5 97.5,342.5C 96.5,342.5 95.5,342.5 94.5,342.5C 94.8214,336.974 94.4881,331.64 93.5,326.5C 92.0101,324.72 90.0101,324.054 87.5,324.5C 87.5,330.5 87.5,336.5 87.5,342.5C 86.5,342.5 85.5,342.5 84.5,342.5C 84.5,335.833 84.5,329.167 84.5,322.5C 86.099,322.768 87.4324,322.434 88.5,321.5 Z"/></g>
<g><path style="opacity:1" fill="#151615" d="M 115.5,321.5 C 124.667,320.337 128.334,324.337 126.5,333.5C 123.167,333.5 119.833,333.5 116.5,333.5C 115.914,339.756 118.58,341.756 124.5,339.5C 125.731,340.651 125.731,341.817 124.5,343C 115.224,345.048 111.224,341.215 112.5,331.5C 111.993,327.588 112.993,324.255 115.5,321.5 Z"/></g>
<g><path style="opacity:1" fill="#171817" d="M 141.5,321.5 C 141.737,322.791 141.404,323.791 140.5,324.5C 138.234,324.141 136.401,324.808 135,326.5C 134.333,330.5 134.333,334.5 135,338.5C 136.865,340.673 139.031,341.007 141.5,339.5C 142.429,340.689 142.762,342.022 142.5,343.5C 133.818,344.67 129.818,340.836 130.5,332C 129.709,323.716 133.376,320.216 141.5,321.5 Z"/></g>
<g><path style="opacity:1" fill="#060606" d="M 183.5,324.5 C 183.829,330.537 183.496,336.537 182.5,342.5C 181.833,337.015 181.167,331.681 180.5,326.5C 179.866,325.053 178.699,324.387 177,324.5C 175.93,324.528 175.097,324.861 174.5,325.5C 173.511,330.975 173.178,336.642 173.5,342.5C 172.5,342.5 171.5,342.5 170.5,342.5C 170.666,336.824 170.499,331.157 170,325.5C 168.057,324.193 166.223,324.193 164.5,325.5C 163.833,331.014 163.167,336.681 162.5,342.5C 162.167,339.167 161.833,335.833 161.5,332.5C 161.514,328.761 162.18,325.428 163.5,322.5C 168.307,322.017 173.14,321.683 178,321.5C 180.655,321.124 182.488,322.124 183.5,324.5 Z"/></g>
<g><path style="opacity:1" fill="#161616" d="M 210.5,322.5 C 208.844,324.06 206.844,325.06 204.5,325.5C 203.883,325.611 203.383,325.944 203,326.5C 202.333,330.5 202.333,334.5 203,338.5C 204.865,340.673 207.031,341.007 209.5,339.5C 210.429,340.689 210.762,342.022 210.5,343.5C 201.825,344.66 197.825,340.827 198.5,332C 198.425,323.214 202.425,320.048 210.5,322.5 Z"/></g>
<g><path style="opacity:1" fill="#1d1d1d" d="M 269.5,345.5 C 270.782,344.292 270.782,342.958 269.5,341.5C 268.893,341.624 268.56,341.957 268.5,342.5C 263.942,343.62 261.109,341.953 260,337.5C 259.333,333.5 259.333,329.5 260,325.5C 260.465,324.069 261.299,322.903 262.5,322C 266.592,322.005 270.592,321.838 274.5,321.5C 274.666,329.84 274.5,338.173 274,346.5C 270.95,350.13 267.117,351.297 262.5,350C 261.663,348.989 261.33,347.822 261.5,346.5C 264.385,346.806 267.052,346.473 269.5,345.5 Z"/></g>
<g><path style="opacity:1" fill="#161616" d="M 292.5,326.5 C 292.5,328.833 292.5,331.167 292.5,333.5C 289.167,333.5 285.833,333.5 282.5,333.5C 282.232,335.099 282.566,336.432 283.5,337.5C 283.414,338.496 283.748,339.329 284.5,340C 286.769,340.758 288.936,340.591 291,339.5C 291.49,340.793 291.657,342.127 291.5,343.5C 282.107,345.11 277.774,341.11 278.5,331.5C 278.46,321.421 282.96,318.754 292,323.5C 292.483,324.448 292.649,325.448 292.5,326.5 Z"/></g>
<g><path style="opacity:1" fill="#0a0a0a" d="M 298.5,321.5 C 302.31,321.515 306.143,321.848 310,322.5C 311.42,329.05 311.92,335.716 311.5,342.5C 310.5,342.5 309.5,342.5 308.5,342.5C 308.821,336.974 308.488,331.64 307.5,326.5C 306.068,324.353 304.235,324.02 302,325.5C 301.501,331.157 301.334,336.824 301.5,342.5C 300.5,342.5 299.5,342.5 298.5,342.5C 298.5,335.5 298.5,328.5 298.5,321.5 Z"/></g>
<g><path style="opacity:1" fill="#6f706f" d="M 189.5,321.5 C 191.167,321.5 192.833,321.5 194.5,321.5C 194.5,328.833 194.5,336.167 194.5,343.5C 192.833,343.5 191.167,343.5 189.5,343.5C 189.5,336.167 189.5,328.833 189.5,321.5 Z"/></g>
<g><path style="opacity:1" fill="#030202" d="M 190.5,322.5 C 191.5,322.5 192.5,322.5 193.5,322.5C 193.5,329.167 193.5,335.833 193.5,342.5C 192.5,342.5 191.5,342.5 190.5,342.5C 190.5,335.833 190.5,329.167 190.5,322.5 Z"/></g>
<g><path style="opacity:1" fill="#151515" d="M 254.5,321.5 C 254.5,328.5 254.5,335.5 254.5,342.5C 252.901,342.232 251.568,342.566 250.5,343.5C 248.143,343.663 245.81,343.497 243.5,343C 242.874,342.25 242.374,341.416 242,340.5C 241.5,334.175 241.334,327.842 241.5,321.5C 242.833,321.5 244.167,321.5 245.5,321.5C 245.334,327.509 245.501,333.509 246,339.5C 247.667,340.833 249.333,340.833 251,339.5C 251.499,333.509 251.666,327.509 251.5,321.5C 252.5,321.5 253.5,321.5 254.5,321.5 Z"/></g>
<g><path style="opacity:1" fill="#a7a8a7" d="M 254.5,321.5 C 255.492,328.648 255.825,335.981 255.5,343.5C 253.833,343.5 252.167,343.5 250.5,343.5C 251.568,342.566 252.901,342.232 254.5,342.5C 254.5,335.5 254.5,328.5 254.5,321.5 Z"/></g>
<g><path style="opacity:1" fill="#909090" d="M 74.5,321.5 C 74.5,328.5 74.5,335.5 74.5,342.5C 75.5,342.5 76.5,342.5 77.5,342.5C 77.5,335.5 77.5,328.5 77.5,321.5C 78.4916,328.648 78.825,335.981 78.5,343.5C 76.8333,343.5 75.1667,343.5 73.5,343.5C 73.175,335.981 73.5084,328.648 74.5,321.5 Z"/></g>
<g><path style="opacity:1" fill="#040404" d="M 74.5,321.5 C 75.5,321.5 76.5,321.5 77.5,321.5C 77.5,328.5 77.5,335.5 77.5,342.5C 76.5,342.5 75.5,342.5 74.5,342.5C 74.5,335.5 74.5,328.5 74.5,321.5 Z"/></g>
<g><path style="opacity:1" fill="#6b6c6b" d="M 298.5,321.5 C 298.5,328.5 298.5,335.5 298.5,342.5C 299.5,342.5 300.5,342.5 301.5,342.5C 300.432,343.434 299.099,343.768 297.5,343.5C 297.175,335.981 297.508,328.648 298.5,321.5 Z"/></g>
<g><path style="opacity:1" fill="#828382" d="M 141.5,321.5 C 142.782,322.708 142.782,324.042 141.5,325.5C 140.893,325.376 140.56,325.043 140.5,324.5C 141.404,323.791 141.737,322.791 141.5,321.5 Z"/></g>
<g><path style="opacity:1" fill="#edeeee" d="M 117.5,324.5 C 121.908,324.062 123.575,326.062 122.5,330.5C 120.5,330.5 118.5,330.5 116.5,330.5C 116.325,328.379 116.659,326.379 117.5,324.5 Z"/></g>
<g><path style="opacity:1" fill="#dbdbdb" d="M 265.5,324.5 C 267.144,324.286 268.644,324.62 270,325.5C 270.667,329.833 270.667,334.167 270,338.5C 267.733,339.935 265.733,339.602 264,337.5C 262.978,332.871 263.478,328.538 265.5,324.5 Z"/></g>
<g><path style="opacity:1" fill="#f2f3f2" d="M 288.5,325.5 C 288.5,326.833 288.5,328.167 288.5,329.5C 286.833,329.5 285.167,329.5 283.5,329.5C 283.5,328.167 283.5,326.833 283.5,325.5C 285.167,324.167 286.833,324.167 288.5,325.5 Z"/></g>
<g><path style="opacity:1" fill="#6c6c6c" d="M 326.5,324.5 C 325.432,325.434 324.099,325.768 322.5,325.5C 322.5,330.167 322.5,334.833 322.5,339.5C 321.513,334.695 321.179,329.695 321.5,324.5C 323.167,324.5 324.833,324.5 326.5,324.5 Z"/></g>
<g><path style="opacity:1" fill="#545554" d="M 88.5,321.5 C 87.4324,322.434 86.099,322.768 84.5,322.5C 84.5,329.167 84.5,335.833 84.5,342.5C 85.5,342.5 86.5,342.5 87.5,342.5C 86.4324,343.434 85.099,343.768 83.5,343.5C 83.5,336.167 83.5,328.833 83.5,321.5C 85.1667,321.5 86.8333,321.5 88.5,321.5 Z"/></g>
<g><path style="opacity:1" fill="#adadad" d="M 212.5,321.5 C 212.5,322.5 212.5,323.5 212.5,324.5C 213.5,324.5 214.5,324.5 215.5,324.5C 215.5,329.833 215.5,335.167 215.5,340.5C 214.513,335.695 214.179,330.695 214.5,325.5C 211.167,325.5 207.833,325.5 204.5,325.5C 206.844,325.06 208.844,324.06 210.5,322.5C 211.167,322.167 211.833,321.833 212.5,321.5 Z"/></g>
<g><path style="opacity:1" fill="#8c8d8c" d="M 223.5,324.5 C 222.432,325.434 221.099,325.768 219.5,325.5C 219.5,330.167 219.5,334.833 219.5,339.5C 218.513,334.695 218.179,329.695 218.5,324.5C 220.167,324.5 221.833,324.5 223.5,324.5 Z"/></g>
<g><path style="opacity:1" fill="#4e4f4e" d="M 93.5,326.5 C 94.4881,331.64 94.8214,336.974 94.5,342.5C 95.5,342.5 96.5,342.5 97.5,342.5C 96.4324,343.434 95.099,343.768 93.5,343.5C 93.5,337.833 93.5,332.167 93.5,326.5 Z"/></g>
<g><path style="opacity:1" fill="#737473" d="M 103.5,326.5 C 104.488,331.64 104.821,336.974 104.5,342.5C 105.5,342.5 106.5,342.5 107.5,342.5C 106.432,343.434 105.099,343.768 103.5,343.5C 103.5,337.833 103.5,332.167 103.5,326.5 Z"/></g>
<g><path style="opacity:1" fill="#080808" d="M 146.5,327.5 C 149.5,327.5 152.5,327.5 155.5,327.5C 155.5,328.5 155.5,329.5 155.5,330.5C 152.5,330.5 149.5,330.5 146.5,330.5C 146.5,329.5 146.5,328.5 146.5,327.5 Z"/></g>
<g><path style="opacity:1" fill="#343434" d="M 174.5,325.5 C 174.5,331.5 174.5,337.5 174.5,343.5C 172.901,343.768 171.568,343.434 170.5,342.5C 171.5,342.5 172.5,342.5 173.5,342.5C 173.178,336.642 173.511,330.975 174.5,325.5 Z"/></g>
<g><path style="opacity:1" fill="#2e2e2e" d="M 183.5,324.5 C 184.49,330.645 184.823,336.978 184.5,343.5C 183.167,343.5 181.833,343.5 180.5,343.5C 180.5,337.833 180.5,332.167 180.5,326.5C 181.167,331.681 181.833,337.015 182.5,342.5C 183.496,336.537 183.829,330.537 183.5,324.5 Z"/></g>
<g><path style="opacity:1" fill="#1f201f" d="M 226.5,327.5 C 229.833,327.5 233.167,327.5 236.5,327.5C 236.5,328.833 236.5,330.167 236.5,331.5C 233.167,331.5 229.833,331.5 226.5,331.5C 226.5,330.167 226.5,328.833 226.5,327.5 Z"/></g>
<g><path style="opacity:1" fill="#6e6f6e" d="M 307.5,326.5 C 308.488,331.64 308.821,336.974 308.5,342.5C 309.5,342.5 310.5,342.5 311.5,342.5C 310.432,343.434 309.099,343.768 307.5,343.5C 307.5,337.833 307.5,332.167 307.5,326.5 Z"/></g>
<g><path style="opacity:1" fill="#b7b8b7" d="M 283.5,325.5 C 283.5,326.833 283.5,328.167 283.5,329.5C 285.167,329.5 286.833,329.5 288.5,329.5C 288.5,328.167 288.5,326.833 288.5,325.5C 289.451,326.919 289.784,328.585 289.5,330.5C 287.167,330.5 284.833,330.5 282.5,330.5C 282.216,328.585 282.549,326.919 283.5,325.5 Z"/></g>
<g><path style="opacity:1" fill="#6d6e6d" d="M 146.5,327.5 C 146.5,328.5 146.5,329.5 146.5,330.5C 149.5,330.5 152.5,330.5 155.5,330.5C 152.375,331.479 149.042,331.813 145.5,331.5C 145.232,329.901 145.566,328.568 146.5,327.5 Z"/></g>
<g><path style="opacity:1" fill="#c5c6c5" d="M 315.5,324.5 C 316.5,324.5 317.5,324.5 318.5,324.5C 318.5,329.833 318.5,335.167 318.5,340.5C 318.064,335.061 317.064,329.728 315.5,324.5 Z"/></g>
<g><path style="opacity:1" fill="#414141" d="M 163.5,322.5 C 162.18,325.428 161.514,328.761 161.5,332.5C 161.833,335.833 162.167,339.167 162.5,342.5C 163.167,336.681 163.833,331.014 164.5,325.5C 164.5,331.5 164.5,337.5 164.5,343.5C 163.167,343.5 161.833,343.5 160.5,343.5C 160.5,336.167 160.5,328.833 160.5,321.5C 161.791,321.263 162.791,321.596 163.5,322.5 Z"/></g>
<g><path style="opacity:1" fill="#a3a3a3" d="M 292.5,326.5 C 293.473,328.948 293.806,331.615 293.5,334.5C 290.167,334.5 286.833,334.5 283.5,334.5C 283.5,335.5 283.5,336.5 283.5,337.5C 282.566,336.432 282.232,335.099 282.5,333.5C 285.833,333.5 289.167,333.5 292.5,333.5C 292.5,331.167 292.5,328.833 292.5,326.5 Z"/></g>
<g><path style="opacity:1" fill="#707170" d="M 268.5,342.5 C 268.56,341.957 268.893,341.624 269.5,341.5C 270.782,342.958 270.782,344.292 269.5,345.5C 269.737,344.209 269.404,343.209 268.5,342.5 Z"/></g>
</svg>
