<svg xmlns="http://www.w3.org/2000/svg" width="1600" height="900" viewBox="0 0 1600 900" fill="none" role="img" aria-label="Abstract background">
  <defs>
    <linearGradient id="bg" x1="0" y1="0" x2="1" y2="1">
      <stop offset="0" stop-color="#f7f9fc"/>
      <stop offset="0.55" stop-color="#eef3fa"/>
      <stop offset="1" stop-color="#f7f9fc"/>
    </linearGradient>

    <linearGradient id="wave1" x1="200" y1="120" x2="1500" y2="820">
      <stop offset="0" stop-color="#234c91" stop-opacity="0.18"/>
      <stop offset="0.55" stop-color="#3cb6ff" stop-opacity="0.14"/>
      <stop offset="1" stop-color="#234c91" stop-opacity="0.10"/>
    </linearGradient>

    <linearGradient id="wave2" x1="100" y1="200" x2="1580" y2="860">
      <stop offset="0" stop-color="#1b3f79" stop-opacity="0.12"/>
      <stop offset="0.6" stop-color="#3cb6ff" stop-opacity="0.10"/>
      <stop offset="1" stop-color="#1b3f79" stop-opacity="0.08"/>
    </linearGradient>

    <filter id="grain" x="-20%" y="-20%" width="140%" height="140%">
      <feTurbulence type="fractalNoise" baseFrequency="0.9" numOctaves="2" stitchTiles="stitch" />
      <feColorMatrix type="matrix" values="
        1 0 0 0 0
        0 1 0 0 0
        0 0 1 0 0
        0 0 0 0.08 0" />
    </filter>

    <radialGradient id="glow" cx="0" cy="0" r="1" gradientUnits="userSpaceOnUse"
      gradientTransform="translate(1250 420) rotate(25) scale(620 460)">
      <stop offset="0" stop-color="#3cb6ff" stop-opacity="0.10"/>
      <stop offset="1" stop-color="#3cb6ff" stop-opacity="0"/>
    </radialGradient>
  </defs>

  <rect width="1600" height="900" fill="url(#bg)"/>

  <!-- soft glow on the right to mirror a portrait/card column -->
  <ellipse cx="1250" cy="420" rx="620" ry="460" fill="url(#glow)"/>

  <!-- flowing wave lines (more weight on the right) -->
  <path d="M-40 620C220 520 420 640 650 610C890 578 980 460 1210 450C1410 441 1510 520 1680 470"
        stroke="url(#wave1)" stroke-width="3.2" stroke-linecap="round"/>
  <path d="M-60 700C180 640 400 720 640 690C860 662 980 560 1200 542C1402 525 1500 590 1700 560"
        stroke="url(#wave2)" stroke-width="2.6" stroke-linecap="round"/>
  <path d="M-80 560C200 440 430 560 680 530C910 502 1010 370 1240 350C1440 330 1540 410 1700 350"
        stroke="url(#wave2)" stroke-width="2.2" stroke-linecap="round" opacity="0.9"/>
  <path d="M40 240C260 180 460 240 700 230C920 220 1080 120 1290 120C1460 120 1540 160 1600 140"
        stroke="url(#wave1)" stroke-width="2" stroke-linecap="round" opacity="0.8"/>

  <!-- subtle grain -->
  <rect width="1600" height="900" filter="url(#grain)" opacity="0.35"/>
</svg>
